<svg width="24" height="24" viewBox="0 0 24 24" fill="currentColor" xmlns="http://www.w3.org/2000/svg">
  <path d="M12 15.5C13.93 15.5 15.5 13.93 15.5 12C15.5 10.07 13.93 8.5 12 8.5C10.07 8.5 8.5 10.07 8.5 12C8.5 13.93 10.07 15.5 12 15.5Z"/>
  <path d="M19.43 12.98C19.46 12.66 19.5 12.34 19.5 12C19.5 11.66 19.46 11.34 19.43 11.02L21.54 9.37C21.73 9.22 21.78 8.94 21.66 8.72L19.66 5.28C19.54 5.06 19.28 4.96 19.06 5.03L16.6 5.79C16.04 5.39 15.41 5.07 14.72 4.85L14.3 2.14C14.27 1.9 14.06 1.72 13.82 1.72H10.18C9.94 1.72 9.73 1.9 9.7 2.14L9.28 4.85C8.59 5.07 7.96 5.39 7.4 5.79L4.94 5.03C4.72 4.96 4.46 5.06 4.34 5.28L2.34 8.72C2.22 8.94 2.27 9.22 2.46 9.37L4.57 11.02C4.54 11.34 4.5 11.66 4.5 12C4.5 12.34 4.54 12.66 4.57 12.98L2.46 14.63C2.27 14.78 2.22 15.06 2.34 15.28L4.34 18.72C4.46 18.94 4.72 19.04 4.94 18.97L7.4 18.21C7.96 18.61 8.59 18.93 9.28 19.15L9.7 21.86C9.73 22.1 9.94 22.28 10.18 22.28H13.82C14.06 22.28 14.27 22.1 14.3 21.86L14.72 19.15C15.41 18.93 16.04 18.61 16.6 18.21L19.06 18.97C19.28 19.04 19.54 18.94 19.66 18.72L21.66 15.28C21.78 15.06 21.73 14.78 21.54 14.63L19.43 12.98Z"/>
</svg>
